# xmcd
#
# Track frame offsets: 
#        150
#        11554
#        23182
#        35636
#        47115
#        59532
#        70673
#        83352
#        95543
#        108035
#        120940
#        133469
#        146748
#        158864
#        171919
#        185235
#        198401
#        211005
#        222935
#        235763
#        248779
#        260333
#        273012
#        284229
#        296420
#        309173
#        320765
#        333369
#
# Disc length: 4594 seconds
#
# Revision: 0
# Processed by: cddbd v1.5.2PL0 Copyright (c) Steve Scherf et al.
# Submitted via: ExactAudioCopy v0.95b4
#
DISCID=9e11f01c
DTITLE=Clarence "Gatemouth" Brown - Dirty Work At The Crossroads 1947-
DTITLE=1953
DYEAR=1950
DGENRE=Blues
TTITLE0=Gatemouth Boogie
TTITLE1=After Sunset
TTITLE2=Guitar In My Hand
TTITLE3=Without Me Baby
TTITLE4=Didn't Reach My Goal
TTITLE5=Atomic Energy
TTITLE6=My Time Is Expensive
TTITLE7=Mary Is Fine
TTITLE8=Two O Clock In The Morning
TTITLE9=Boogie Rambler
TTITLE10=She Walk Right In
TTITLE11=Win With Me Baby
TTITLE12=I Live My Life
TTITLE13=Pale Dry Boogie Pt 1
TTITLE14=Pale Dry Boogie Pt 2
TTITLE15=She Winked Her Eye
TTITLE16=Sad Hour
TTITLE17=Too Late Baby
TTITLE18=Takin My Chances
TTITLE19=Just Got Lucky
TTITLE20=Baby Take It Easy
TTITLE21=Dirty Work At The Crossroads
TTITLE22=You Got Money
TTITLE23=Boogie Uproar
TTITLE24=Please Tell Me Baby
TTITLE25=Gate Walks To Board
TTITLE26=September Song
TTITLE27=Okie Dokie Stomp
EXTD=
EXTT0=
EXTT1=
EXTT2=
EXTT3=
EXTT4=
EXTT5=
EXTT6=
EXTT7=
EXTT8=
EXTT9=
EXTT10=
EXTT11=
EXTT12=
EXTT13=
EXTT14=
EXTT15=
EXTT16=
EXTT17=
EXTT18=
EXTT19=
EXTT20=
EXTT21=
EXTT22=
EXTT23=
EXTT24=
EXTT25=
EXTT26=
EXTT27=
PLAYORDER=
